# xmcd
# 
# Track frame offsets:
#     150
#     17463
#     33543
#     43201
#     63239
#     75376
#     98619
#     112601
#     130170
#     146247
#     164017
#     179271
#     197177
#     218216
#     230092
#     244525
# 
# Disc length: 3485
# 
# Revision: 0
# Processed by: cddbd v1.5.1PL2 Copyright (c) Steve Scherf et al.
# Submitted via: BonkEnc v1.0beta3
# 
DISCID=d70d9b10
DTITLE=Thomas Stelzer - Deep Inside
DYEAR=1900
DGENRE=Blues
TTITLE0=St. James Infirmary Blues
TTITLE1=Before You Accuse Me
TTITLE2=Deep Inside
TTITLE3=Heaven Help Us All
TTITLE4=Nobody Knows You When You're Down And Out
TTITLE5=Down In New Orleans
TTITLE6=What A Day!
TTITLE7=Lean On Me
TTITLE8=When The Trouble Cleaned My Way
TTITLE9=Key to The Highway
TTITLE10=Alberta
TTITLE11=To Ray
TTITLE12=Falling Down
TTITLE13=Red Sails In The Sunset
TTITLE14=Don't Say So Long
TTITLE15=Jambalaya
EXTD=
EXTT0=
EXTT1=
EXTT2=
EXTT3=
EXTT4=
EXTT5=
EXTT6=
EXTT7=
EXTT8=
EXTT9=
EXTT10=
EXTT11=
EXTT12=
EXTT13=
EXTT14=
EXTT15=
PLAYORDER=
